<svg xmlns="http://www.w3.org/2000/svg" viewBox="0 0 320 320" role="img" aria-labelledby="title desc">
  <title id="title">BINRAT dumpster mark</title>
  <desc id="desc">A blocky cyber rat peeking from a green dumpster with one red eye.</desc>
  <rect width="320" height="320" fill="#0a080a"/>
  <rect x="32" y="206" width="256" height="78" rx="4" fill="#263b35" stroke="#6c746d" stroke-width="6"/>
  <rect x="46" y="224" width="228" height="12" fill="#172621"/>
  <rect x="58" y="246" width="204" height="6" fill="#314d43"/>
  <rect x="78" y="76" width="46" height="46" fill="#303138"/>
  <rect x="196" y="76" width="46" height="46" fill="#303138"/>
  <rect x="94" y="92" width="132" height="124" rx="22" fill="#404047"/>
  <rect x="110" y="114" width="100" height="72" fill="#4b4b53"/>
  <rect x="112" y="128" width="42" height="32" fill="#1b1b20"/>
  <rect x="166" y="128" width="42" height="32" fill="#1b1b20"/>
  <rect x="180" y="136" width="16" height="16" fill="#ff2638"/>
  <rect x="126" y="166" width="68" height="28" fill="#25262b"/>
  <rect x="144" y="174" width="32" height="10" fill="#d5beae"/>
  <rect x="68" y="196" width="184" height="18" fill="#121513"/>
  <path d="M232 182h34v12h18v12h-18v12h-44v-12h-12v-12h22z" fill="#404047"/>
  <rect x="262" y="190" width="12" height="8" fill="#d17050"/>
  <rect x="44" y="290" width="232" height="8" fill="#8b207d" opacity=".65"/>
</svg>
